<svg width="930" height="775" viewBox="0 0 930 775" fill="none" xmlns="http://www.w3.org/2000/svg">
    <g opacity="0.1">
        <path fill-rule="evenodd" clip-rule="evenodd"
            d="M505.955 193.989L389.267 57.8912C372.376 89.9581 356.001 146.554 379.544 187.41C368.117 188.427 357.197 190.36 348.75 193.75C294.86 215.376 235.729 271.25 206.667 387.5C198.251 421.161 183.105 437.281 165.103 456.44C148.123 474.512 128.601 495.288 109.792 536.042C71.0417 620 175.619 703.958 251.875 627.702C294.747 584.83 332.221 567.132 363.684 552.273C408.968 530.886 441.797 515.381 460.342 439.167C469.164 474.717 465.635 558.616 380.936 609.809C296.236 661.001 278.591 768.837 280.355 800.833H762.083C762.083 497.075 721.867 234.629 505.955 193.989Z"
            fill="#7B61FF" />
    </g>
</svg>
 