<svg width="78" height="82" viewBox="0 0 78 82" fill="none" xmlns="http://www.w3.org/2000/svg">
<path d="M28.6968 19.1013C28.2688 17.8566 28.0365 16.5136 28.0399 15.1152C28.0554 8.67948 33.0337 3.47432 39.1594 3.48909C45.2851 3.50385 50.2383 8.73294 50.2228 15.1686C50.2182 17.0538 49.7851 18.8398 49.0211 20.418C50.1148 20.5002 51.1765 21.0206 51.9493 21.9529C56.1476 27.0187 59.8149 34.2359 59.7948 42.5911C59.7804 48.5645 57.8123 52.9861 55.1597 56.169L60.181 57.1067C62.2313 57.4896 63.723 59.3648 63.7177 61.5527L63.6974 70C63.6945 71.1948 63.2399 72.3396 62.4337 73.1826C61.6275 74.0255 60.5356 74.4975 59.3983 74.4948L18.5785 74.3964C16.2102 74.3907 14.2952 72.369 14.3012 69.8809L14.3215 61.4337C14.3268 59.2483 15.8241 57.3817 17.8734 57.0059L22.407 56.1746C19.7336 52.9729 17.7543 48.5169 17.7688 42.4898C17.7846 35.9712 20.2027 30.2999 23.0333 25.956C24.8125 23.2256 26.825 20.9088 28.6968 19.1013Z" fill="#F4F7FA"/>
<path d="M41.1696 41.9506L36.8814 41.9402C36.9013 33.6678 39.3095 25.415 44.6074 19.3827C45.4382 18.2007 45.9308 16.7401 45.9346 15.1583C45.9441 11.2107 42.9059 8.00331 39.1485 7.99426C35.3912 7.9852 32.3375 11.1779 32.328 15.1255C32.3233 17.0731 33.0605 18.8406 34.2599 20.1326C30.0024 23.3054 22.0827 31.8182 22.057 42.5002C22.031 53.2802 30.0652 57.6638 34.2833 58.57L18.6097 61.444L18.5893 69.8912L59.4092 69.9896L59.4296 61.5424L43.3986 58.5486C47.6689 57.5718 55.481 53.1966 55.5066 42.5808C55.5234 35.6297 52.4562 29.426 48.7149 24.9118C44.586 28.2808 41.1835 36.1567 41.1696 41.9506Z" fill="#34364C"/>
</svg>
