<svg width="78" height="83" viewBox="0 0 78 83" fill="none" xmlns="http://www.w3.org/2000/svg">
<path d="M28.8727 19.9707C28.4448 18.726 28.2124 17.3831 28.2158 15.9846C28.2313 9.54893 33.2097 4.34377 39.3354 4.35853C45.461 4.37329 50.4143 9.60239 50.3988 16.0381C50.3942 17.9232 49.9611 19.7092 49.1971 21.2875C50.2908 21.3696 51.3525 21.89 52.1252 22.8224C56.3236 27.8881 59.9909 35.1054 59.9708 43.4606C59.9564 49.4339 57.9883 53.8555 55.3356 57.0384L60.357 57.9762C62.4073 58.3591 63.899 60.2343 63.8937 62.4222L63.8733 70.8694C63.8704 72.0643 63.4159 73.2091 62.6097 74.052C61.8035 74.895 60.7116 75.367 59.5743 75.3642L18.7544 75.2659C16.3861 75.2601 14.4711 73.2385 14.4771 70.7503L14.4975 62.3031C14.5027 60.1178 16.0001 58.2511 18.0493 57.8754L22.5829 57.0441C19.9096 53.8423 17.9303 49.3864 17.9448 43.3593C17.9605 36.8406 20.3787 31.1694 23.2093 26.8255C24.9885 24.0951 27.0009 21.7783 28.8727 19.9707Z" fill="#34364C"/>
<path d="M41.3455 42.82L37.0574 42.8097C37.0773 34.5373 39.4854 26.2845 44.7834 20.2521C45.6142 19.0701 46.1068 17.6095 46.1106 16.0277C46.1201 12.0802 43.0819 8.87276 39.3245 8.8637C35.5671 8.85465 32.5135 12.0474 32.504 15.9949C32.4993 17.9425 33.2365 19.71 34.4359 21.0021C30.1784 24.1748 22.2587 32.6876 22.233 43.3696C22.207 54.1496 30.2412 58.5333 34.4593 59.4394L18.7856 62.3135L18.7653 70.7607L59.5852 70.8591L59.6055 62.4118L43.5745 59.418C47.8449 58.4413 55.657 54.0661 55.6826 43.4502C55.6993 36.4992 52.6322 30.2955 48.8909 25.7813C44.762 29.1502 41.3595 37.0261 41.3455 42.82Z" fill="#F4F7FA"/>
</svg>
