<svg width="78" height="82" viewBox="0 0 78 82" fill="none" xmlns="http://www.w3.org/2000/svg">
<path d="M32.6206 1.28622C34.0325 1.12286 35.4296 1.70464 36.3515 2.83978L45.0745 13.5815C55.1153 16.2142 60.9174 24.1765 64.1131 34.1067C67.4061 44.339 68.1955 57.3209 68.1634 70.6315C68.1574 73.1196 66.2327 75.132 63.8644 75.1263L23.8827 75.03C21.6061 75.0245 19.7309 73.151 19.6113 70.7625C19.5046 68.6311 19.9802 64.9344 21.4114 61.1609L21.4377 61.0918C17.3936 63.3596 12.9129 62.8032 9.59159 60.3064C5.5553 57.2719 3.32124 51.3455 5.90408 45.5044C7.76659 41.2923 9.76841 39.0642 11.2828 37.3792C12.6973 35.8052 13.2869 35.1128 13.707 33.366C16.2542 22.7748 21.4568 16.6826 27.0348 13.91C26.9572 12.7025 27.0255 11.5395 27.169 10.4839C27.5262 7.85616 28.4054 5.42919 29.3 3.65559C29.9652 2.33685 31.2087 1.44957 32.6206 1.28622Z" fill="#34364C"/>
<path fill-rule="evenodd" clip-rule="evenodd" d="M42.745 17.655L33.089 5.76433C31.6804 8.55708 30.3094 13.4888 32.2548 17.056C31.3062 17.1424 30.3994 17.3088 29.6976 17.6027C25.2204 19.4777 20.301 24.3378 17.8645 34.4687C17.159 37.4022 15.8985 38.8047 14.4004 40.4717C12.9873 42.0441 11.3627 43.8518 9.79302 47.4017C6.55927 54.7148 15.2212 62.0567 21.5662 55.4226C25.1334 51.6929 28.2474 50.1571 30.8618 48.8677C34.6246 47.0119 37.3527 45.6665 38.9078 39.0246C39.6326 42.1262 39.322 49.4413 32.2815 53.8882C25.241 58.3351 23.7538 67.7345 23.8936 70.5248L63.8753 70.6211C63.9391 44.1344 60.6565 21.2418 42.745 17.655Z" fill="#F4F7FA"/>
<ellipse cx="30.7371" cy="31.1208" rx="3.21612" ry="3.37889" transform="rotate(0.13808 30.7371 31.1208)" fill="#34364C"/>
</svg>
