<svg width="78" height="83" viewBox="0 0 78 83" fill="none" xmlns="http://www.w3.org/2000/svg">
<path d="M32.4446 1.41677C33.8565 1.25342 35.2536 1.8352 36.1754 2.97033L44.8984 13.712C54.9392 16.3447 60.7414 24.307 63.9371 34.2372C67.2301 44.4695 68.0195 57.4515 67.9874 70.762C67.9814 73.2502 66.0567 75.2626 63.6884 75.2569L23.7066 75.1605C21.4301 75.155 19.5549 73.2815 19.4353 70.8931C19.3285 68.7617 19.8041 65.065 21.2354 61.2914L21.2617 61.2223C17.2176 63.4901 12.7368 62.9338 9.41556 60.4369C5.37927 57.4025 3.14521 51.476 5.72805 45.6349C7.59057 41.4228 9.59239 39.1948 11.1067 37.5097C12.5213 35.9358 13.1109 35.2434 13.531 33.4965C16.0782 22.9053 21.2808 16.8131 26.8588 14.0405C26.7811 12.8331 26.8495 11.6701 26.993 10.6144C27.3502 7.98672 28.2294 5.55975 29.124 3.78614C29.7892 2.4674 31.0326 1.58012 32.4446 1.41677Z" fill="#F4F7FA"/>
<path fill-rule="evenodd" clip-rule="evenodd" d="M42.569 17.7855L32.913 5.89488C31.5043 8.68763 30.1334 13.6193 32.0788 17.1866C31.1302 17.273 30.2234 17.4394 29.5216 17.7332C25.0444 19.6082 20.125 24.4684 17.6885 34.5992C16.983 37.5327 15.7225 38.9353 14.2244 40.6022C12.8113 42.1747 11.1867 43.9824 9.617 47.5322C6.38325 54.8454 15.0452 62.1872 21.3902 55.5532C24.9574 51.8235 28.0714 50.2877 30.6857 48.9983C34.4486 47.1425 37.1766 45.7971 38.7318 39.1551C39.4566 42.2568 39.146 49.5718 32.1055 54.0187C25.065 58.4656 23.5778 67.8651 23.7175 70.6553L63.6993 70.7517C63.7631 44.2649 60.4804 21.3724 42.569 17.7855Z" fill="#34364C"/>
<ellipse cx="30.5611" cy="31.2513" rx="3.21612" ry="3.37889" transform="rotate(0.13808 30.5611 31.2513)" fill="#F4F7FA"/>
</svg>
