<svg width="78" height="82" viewBox="0 0 78 82" fill="none" xmlns="http://www.w3.org/2000/svg">
<g clip-path="url(#clip0_502_381)">
<path fill-rule="evenodd" clip-rule="evenodd" d="M32.5169 4.95513C32.5951 2.52314 34.4974 0.595418 36.8135 0.601L43.2457 0.616501C45.5619 0.622083 47.4548 2.55895 47.5213 4.99129L47.5559 6.25839L49.6644 6.26347C52.0327 6.26918 53.9477 8.29084 53.9417 10.779L53.9351 13.5114C58.612 12.4114 63.6554 13.1659 67.9286 16.9253C76.8057 24.7352 75.9479 41.0597 65.3687 49.9644C62.8157 52.1134 60.8098 53.8952 59.4271 55.7327C59.1116 56.1519 58.8413 56.5576 58.6135 56.9548L62.9579 57.5828C65.084 57.8902 66.666 59.8015 66.6606 62.0563L66.6402 70.5035C66.6342 72.9916 64.7095 75.0041 62.3412 74.9983L17.3597 74.8899C14.9914 74.8842 13.0764 72.8626 13.0824 70.3744L13.1027 61.9272C13.1082 59.6724 14.6994 57.7687 16.8269 57.4717L21.1743 56.8646C20.9485 56.4663 20.6801 56.0593 20.3667 55.6385C18.9928 53.7944 16.9955 52.0029 14.4529 49.8417C3.9168 40.8862 3.13762 24.5576 12.0523 16.7906C16.3435 13.0519 21.3905 12.3217 26.0621 13.4443L26.0687 10.7118C26.0747 8.22367 27.9994 6.21126 30.3677 6.21697L32.4762 6.22205L32.5169 4.95513Z" fill="#F4F7FA"/>
<path fill-rule="evenodd" clip-rule="evenodd" d="M36.8026 5.10618L43.2348 5.12168L43.3888 10.7536L49.6535 10.7687L49.6372 17.5264L43.5735 17.5118L43.8496 25.1634C43.9675 25.0182 44.0889 24.8759 44.214 24.7369C50.0865 18.2113 58.7784 14.7521 65.175 20.3796C71.5936 26.0266 71.5624 38.979 62.688 46.4488C57.6609 50.6802 53.1574 54.7601 53.3644 60.7438L62.3724 62.046L62.3521 70.4932L17.3705 70.3848L17.3909 61.9376L26.4051 60.6789C26.6409 54.6962 22.1571 50.5946 17.1505 46.339C8.31217 38.8265 8.34339 25.8742 14.7892 20.2582C21.2128 14.6616 29.888 18.1626 35.7289 24.7164C35.8533 24.856 35.974 24.999 36.0912 25.1447L36.4042 17.4945L30.3405 17.4799L30.3568 10.7221L36.6215 10.7372L36.8026 5.10618ZM30.6811 30.9661C34.5956 37.7401 35.0968 45.6489 35.0885 49.0877C33.1183 49.0867 25.6991 45.6358 21.7803 39.9905C18.959 35.9263 18.2353 29.9048 20.6678 27.5736C23.1003 25.2424 28.2345 26.7324 30.6811 30.9661ZM49.2316 31.0108C45.2845 37.7658 44.7452 45.6721 44.7369 49.111C46.7071 49.1194 54.1428 45.7043 58.0888 40.078C60.9297 36.0275 61.6824 30.0095 59.2612 27.6666C56.8399 25.3237 51.6986 26.7889 49.2316 31.0108Z" fill="#34364D"/>
</g>
<defs>
<clipPath id="clip0_502_381">
<rect width="77.187" height="81.0934" fill="white" transform="translate(0.364197 0.513153) rotate(0.13808)"/>
</clipPath>
</defs>
</svg>
