<svg width="78" height="82" viewBox="0 0 78 82" fill="none" xmlns="http://www.w3.org/2000/svg">
<g clip-path="url(#clip0_502_364)">
<path fill-rule="evenodd" clip-rule="evenodd" d="M32.6929 4.82454C32.7711 2.39255 34.6734 0.464834 36.9895 0.470415L43.4217 0.485917C45.7379 0.491499 47.6308 2.42836 47.6973 4.8607L47.7319 6.12781L49.8404 6.13289C52.2087 6.13859 54.1237 8.16026 54.1177 10.6484L54.1111 13.3808C58.788 12.2808 63.8315 13.0353 68.1046 16.7947C76.9818 24.6046 76.1239 40.9292 65.5447 49.8339C62.9917 51.9828 60.9858 53.7646 59.6031 55.6021C59.2876 56.0214 59.0173 56.427 58.7895 56.8242L63.134 57.4522C65.26 57.7596 66.8421 59.6709 66.8366 61.9257L66.8163 70.3729C66.8103 72.8611 64.8855 74.8735 62.5173 74.8678L17.5357 74.7594C15.1674 74.7536 13.2524 72.732 13.2584 70.2438L13.2788 61.7966C13.2842 59.5419 14.8754 57.6381 17.003 57.3411L21.3504 56.734C21.1245 56.3357 20.8561 55.9287 20.5427 55.508C19.1688 53.6638 17.1716 51.8723 14.629 49.7112C4.09283 40.7556 3.31364 24.4271 12.2284 16.66C16.5196 12.9213 21.5665 12.1911 26.2381 13.3137L26.2447 10.5812C26.2507 8.09308 28.1754 6.08068 30.5437 6.08638L32.6522 6.09146L32.6929 4.82454Z" fill="#34364C"/>
<path fill-rule="evenodd" clip-rule="evenodd" d="M36.9786 4.9756L43.4109 4.9911L43.5648 10.623L49.8295 10.6381L49.8132 17.3958L43.7495 17.3812L44.0257 25.0328C44.1435 24.8876 44.2649 24.7453 44.39 24.6063C50.2625 18.0807 58.9544 14.6215 65.351 20.249C71.7697 25.896 71.7384 38.8484 62.864 46.3182C57.8369 50.5496 53.3334 54.6296 53.5404 60.6133L62.5485 61.9154L62.5281 70.3626L17.5465 70.2542L17.5669 61.807L26.5811 60.5483C26.8169 54.5657 22.3332 50.464 17.3265 46.2084C8.4882 38.6959 8.51941 25.7436 14.9652 20.1276C21.3888 14.531 30.064 18.032 35.905 24.5858C36.0294 24.7254 36.1501 24.8684 36.2673 25.0141L36.5803 17.3639L30.5166 17.3493L30.5328 10.5916L36.7976 10.6067L36.9786 4.9756ZM30.8571 30.8355C34.7717 37.6095 35.2729 45.5183 35.2646 48.9571C33.2943 48.9561 25.8752 45.5052 21.9563 39.8599C19.135 35.7957 18.4113 29.7742 20.8438 27.443C23.2763 25.1118 28.4106 26.6018 30.8571 30.8355ZM49.4076 30.8802C45.4605 37.6352 44.9212 45.5416 44.9129 48.9804C46.8832 48.9888 54.3189 45.5738 58.2649 39.9474C61.1057 35.8969 61.8584 29.8789 59.4372 27.536C57.016 25.1931 51.8746 26.6583 49.4076 30.8802Z" fill="#F4F7FA"/>
</g>
<defs>
<clipPath id="clip0_502_364">
<rect width="77.187" height="81.0934" fill="white" transform="translate(0.540222 0.382568) rotate(0.13808)"/>
</clipPath>
</defs>
</svg>
