<svg width="79" height="82" viewBox="0 0 79 82" fill="none" xmlns="http://www.w3.org/2000/svg">
<path d="M25.7987 46.6471C25.2853 47.3796 24.673 48.1422 23.9595 48.9266C21.4416 51.6946 18.3561 53.9696 16.3655 55.1581L16.0306 55.3581C14.6926 56.157 13.8645 57.6477 13.8606 59.2645L13.8344 70.1275C13.8284 72.6156 15.7434 74.6373 18.1117 74.643L59.9212 74.7438C62.2894 74.7495 64.2142 72.7371 64.2202 70.2489L64.2463 59.3859C64.2502 57.7692 63.4293 56.2744 62.0952 55.4691L61.7613 55.2675C59.7764 54.0694 56.7019 51.7796 54.1973 48.9994C53.4876 48.2117 52.879 47.4461 52.3692 46.7111C54.2523 46.2394 55.6549 44.4624 55.66 42.339L55.6777 35.0054C55.6812 33.5416 55.0076 32.1673 53.8713 31.3204L52.0533 29.9654C53.1093 27.8227 53.7099 25.3898 53.7161 22.8117C53.737 14.1625 47.0801 7.13481 38.8475 7.11497C30.6149 7.09513 23.9241 14.0906 23.9033 22.7399C23.8967 25.463 24.5538 28.0266 25.7117 30.2599L24.3707 31.2493C23.2304 32.0908 22.5502 33.4617 22.5466 34.9256L22.529 42.2591C22.5238 44.3826 23.9178 46.1662 25.7987 46.6471Z" fill="#34364C"/>
<path d="M49.428 22.8014C49.4202 26.0369 48.1021 28.9475 46.0028 30.9801L51.3895 34.9951L51.3719 42.3287L46.0891 42.3159C46.3356 45.7159 48.4034 49.1229 51.0826 52.0968C53.9259 55.2529 57.3497 57.801 59.6243 59.174L59.9582 59.3756L59.932 70.2386L18.1225 70.1379L18.1487 59.2748L18.4836 59.0749C20.7647 57.7128 24.2008 55.1812 27.0593 52.0389C29.7528 49.0779 31.837 45.6809 32.0999 42.2822L26.8171 42.2695L26.8348 34.9359L31.8695 31.2209C29.61 29.1695 28.1833 26.1341 28.1914 22.7502C28.2063 16.5891 32.9723 11.606 38.8366 11.6202C44.7009 11.6343 49.4428 16.6403 49.428 22.8014Z" fill="#F4F7FA"/>
</svg>
