<svg width="78" height="82" viewBox="0 0 78 82" fill="none" xmlns="http://www.w3.org/2000/svg">
<path d="M25.1015 47.026C24.5882 47.7585 23.9759 48.5212 23.2624 49.3055C20.7444 52.0736 17.659 54.3485 15.6683 55.5371L15.3335 55.737C13.9955 56.5359 13.1673 58.0267 13.1634 59.6434L13.1372 70.5065C13.1312 72.9946 15.0463 75.0163 17.4145 75.022L59.224 75.1227C61.5923 75.1285 63.517 73.116 63.523 70.6279L63.5492 59.7648C63.5531 58.1481 62.7322 56.6534 61.398 55.8481L61.0641 55.6465C59.0792 54.4484 56.0048 52.1585 53.5002 49.3784C52.7905 48.5906 52.1819 47.825 51.672 47.0901C53.5552 46.6183 54.9578 44.8414 54.9629 42.7179L54.9806 35.3844C54.9841 33.9205 54.3104 32.5463 53.1742 31.6994L51.3562 30.3444C52.4122 28.2017 53.0128 25.7688 53.019 23.1907C53.0398 14.5415 46.3829 7.51377 38.1503 7.49393C29.9177 7.47409 23.227 14.4696 23.2061 23.1189C23.1996 25.842 23.8567 28.4056 25.0146 30.6388L23.6736 31.6283C22.5333 32.4697 21.853 33.8407 21.8495 35.3045L21.8318 42.6381C21.8267 44.7615 23.2207 46.5452 25.1015 47.026Z" fill="#F4F7FA"/>
<path d="M48.7309 23.1804C48.7231 26.4158 47.4051 29.3264 45.3058 31.3591L50.6925 35.374L50.6748 42.7076L45.392 42.6949C45.6385 46.0948 47.7063 49.5018 50.3855 52.4757C53.2288 55.6318 56.6526 58.1799 58.9272 59.553L59.2611 59.7545L59.2349 70.6176L17.4254 70.5168L17.4516 59.6537L17.7865 59.4538C20.0676 58.0918 23.5037 55.5602 26.3622 52.4178C29.0557 49.4569 31.1399 46.0599 31.4028 42.6611L26.12 42.6484L26.1377 35.3148L31.1724 31.5998C28.9129 29.5485 27.4862 26.5131 27.4943 23.1292C27.5092 16.9681 32.2752 11.985 38.1395 11.9991C44.0038 12.0132 48.7457 17.0193 48.7309 23.1804Z" fill="#34364C"/>
</svg>
