<svg width="78" height="82" viewBox="0 0 78 82" fill="none" xmlns="http://www.w3.org/2000/svg">
<path d="M19.8941 11.444C19.8914 12.556 20.0591 13.6264 20.3714 14.6279L18.2522 15.666C16.502 13.7507 14.0421 12.5562 11.3151 12.5496C5.98647 12.5368 1.65583 17.0647 1.64234 22.663C1.63031 27.6534 5.05276 31.8098 9.57056 32.6627L14.6101 50.9869C14.7153 51.3694 14.8683 51.7356 15.0651 52.0758L17.983 57.1201L17.965 57.1234C15.9158 57.4991 14.4184 59.3658 14.4131 61.5511L14.3928 69.9983C14.3868 72.4865 16.3018 74.5081 18.6701 74.5138L59.49 74.6122C60.6273 74.615 61.7191 74.1429 62.5253 73.3C63.3316 72.4571 63.7861 71.3122 63.789 70.1174L63.8093 61.6702C63.8146 59.4823 62.3229 57.6071 60.2727 57.2242L60.1864 57.2081L63.1206 52.1916C63.319 51.8524 63.4738 51.4869 63.5808 51.105L68.7087 32.8052C73.2305 31.9741 76.673 27.8342 76.685 22.8439C76.6985 17.2456 72.3897 12.6968 67.0611 12.684C64.3306 12.6774 61.8622 13.863 60.1024 15.774L57.992 14.7276C58.3109 13.725 58.4848 12.6524 58.4875 11.537C58.501 5.93868 54.1922 1.38995 48.8636 1.3771C43.5349 1.36426 39.2043 5.89218 39.1908 11.4905C39.2043 5.89218 34.8955 1.34344 29.5669 1.3306C24.2383 1.31776 19.9076 5.84568 19.8941 11.444Z" fill="#34364C"/>
<path d="M31.4539 16.7297C33.4657 15.9221 34.8969 13.8779 34.9026 11.4802C34.9101 8.36998 32.5164 5.8429 29.556 5.83577C26.5957 5.82863 24.1898 8.34415 24.1823 11.4543C24.1753 14.3285 26.219 16.7046 28.8655 17.0544L26.4261 37.3646L14.928 26.8219C15.9841 25.796 16.6469 24.3293 16.6509 22.6992C16.6584 19.589 14.2646 17.0619 11.3042 17.0548C8.34389 17.0477 5.93797 19.5632 5.93048 22.6734C5.92298 25.7835 8.31674 28.3106 11.2771 28.3177C11.7982 28.319 12.3022 28.2421 12.7789 28.0975L18.7298 49.7354L24.9118 60.4227L18.7013 61.5615L18.6809 70.0087L59.5008 70.1071L59.5212 61.6598L53.2365 60.4862L59.4672 49.8336L65.5224 28.2246C65.9984 28.3715 66.5019 28.4508 67.0231 28.4521C69.9834 28.4592 72.3893 25.9437 72.3968 22.8335C72.4043 19.7234 70.0106 17.1963 67.0502 17.1891C64.0899 17.182 61.6839 19.6975 61.6764 22.8077C61.6725 24.4378 62.3282 25.9077 63.3794 26.9386L51.8306 37.4259L49.4892 17.1041C52.1373 16.7671 54.1924 14.4008 54.1993 11.5267C54.2068 8.41649 51.8131 5.88941 48.8527 5.88227C45.8924 5.87514 43.4864 8.39065 43.4789 11.5008C43.4732 13.8985 44.8945 15.9497 46.9024 16.7669L39.1338 35.1427L31.4539 16.7297Z" fill="#F4F7FA"/>
</svg>
