<svg width="78" height="82" viewBox="0 0 78 82" fill="none" xmlns="http://www.w3.org/2000/svg">
<path d="M19.7182 11.5745C19.7155 12.6866 19.8832 13.7569 20.1954 14.7584L18.0762 15.7965C16.326 13.8813 13.8661 12.6868 11.1391 12.6802C5.81051 12.6673 1.47986 17.1953 1.46637 22.7936C1.45435 27.7839 4.8768 31.9403 9.3946 32.7933L14.4342 51.1175C14.5394 51.5 14.6924 51.8661 14.8892 52.2064L17.807 57.2506L17.789 57.2539C15.7398 57.6297 14.2424 59.4963 14.2372 61.6817L14.2168 70.1289C14.2108 72.617 16.1258 74.6387 18.4941 74.6444L59.314 74.7428C60.4513 74.7455 61.5432 74.2735 62.3494 73.4306C63.1556 72.5876 63.6101 71.4428 63.613 70.248L63.6334 61.8007C63.6387 59.6128 62.147 57.7376 60.0967 57.3547L60.0105 57.3386L62.9446 52.3222C63.1431 51.9829 63.2978 51.6175 63.4049 51.2355L68.5327 32.9358C73.0545 32.1046 76.497 27.9648 76.509 22.9744C76.5225 17.3761 72.2137 12.8274 66.8851 12.8145C64.1547 12.8079 61.6863 13.9936 59.9265 15.9046L57.816 14.8582C58.1349 13.8556 58.3088 12.783 58.3115 11.6676C58.325 6.06924 54.0162 1.5205 48.6876 1.50766C43.359 1.49482 39.0283 6.02273 39.0148 11.6211C39.0283 6.02274 34.7196 1.474 29.3909 1.46115C24.0623 1.44831 19.7316 5.97623 19.7182 11.5745Z" fill="#F4F7FA"/>
<path d="M31.2779 16.8602C33.2897 16.0527 34.7209 14.0084 34.7267 11.6107C34.7342 8.50054 32.3404 5.97346 29.3801 5.96632C26.4197 5.95919 24.0138 8.4747 24.0063 11.5849C23.9994 14.459 26.0431 16.8352 28.6895 17.1849L26.2501 37.4952L14.752 26.9524C15.8082 25.9266 16.471 24.4598 16.4749 22.8297C16.4824 19.7196 14.0886 17.1925 11.1283 17.1854C8.16792 17.1782 5.76201 19.6937 5.75451 22.8039C5.74702 25.9141 8.14078 28.4412 11.1011 28.4483C11.6223 28.4496 12.1262 28.3726 12.6029 28.2281L18.5538 49.866L24.7359 60.5532L18.5253 61.692L18.505 70.1392L59.3249 70.2376L59.3452 61.7904L53.0605 60.6167L59.2913 49.9641L65.3464 28.3552C65.8224 28.502 66.326 28.5814 66.8471 28.5826C69.8075 28.5898 72.2134 26.0743 72.2209 22.9641C72.2284 19.8539 69.8346 17.3268 66.8742 17.3197C63.9139 17.3126 61.508 19.8281 61.5005 22.9383C61.4966 24.5684 62.1523 26.0383 63.2034 27.0692L51.6547 37.5564L49.3132 17.2346C51.9613 16.8977 54.0164 14.5314 54.0234 11.6572C54.0309 8.54704 51.6371 6.01996 48.6767 6.01283C45.7164 6.00569 43.3105 8.5212 43.303 11.6314C43.2972 14.0291 44.7185 16.0802 46.7264 16.8974L38.9578 35.2732L31.2779 16.8602Z" fill="#34364C"/>
</svg>
