<svg width="79" height="82" viewBox="0 0 79 82" fill="none" xmlns="http://www.w3.org/2000/svg">
<path d="M28.737 6.08915C29.5181 6.09103 30.2499 6.31218 30.8797 6.69703C31.5113 6.31522 32.2441 6.0976 33.0252 6.09948L44.8176 6.1279C45.5987 6.12978 46.3304 6.35094 46.9602 6.73578C47.5919 6.35398 48.3247 6.13635 49.1058 6.13824L59.8261 6.16407C62.1944 6.16978 64.1094 8.19144 64.1034 10.6796L64.079 20.8162C64.0756 22.2343 63.4369 23.568 62.3551 24.4162L55.7257 29.614L57.5566 47.3342C58.0413 52.0256 60.1135 54.4102 63.1302 58.6576C63.685 59.4388 63.9836 60.388 63.9813 61.3628L63.9596 70.3732C63.9536 72.8613 62.0288 74.8737 59.6606 74.868L17.8511 74.7672C15.4828 74.7615 13.5678 72.7399 13.5738 70.2517L13.5955 61.2414C13.5979 60.2666 13.9011 59.3188 14.4597 58.5403C17.4968 54.3075 19.5804 51.9329 20.0877 47.2439L22.004 29.5328L15.3998 24.3031C14.3221 23.4496 13.6898 22.1128 13.6932 20.6948L13.7177 10.5582C13.7237 8.07001 15.6484 6.05761 18.0167 6.06331L28.737 6.08915Z" fill="#34364C"/>
<path d="M18.0059 10.5685L28.7262 10.5943L28.71 17.3521L32.9981 17.3624L33.0144 10.6047L44.8068 10.6331L44.7905 17.3908L49.0787 17.4012L49.095 10.6434L59.8153 10.6692L59.7909 20.8059L51.1983 27.543L53.2935 47.8214L24.3485 47.7517L26.5414 27.4836L17.9814 20.7051L18.0059 10.5685Z" fill="#F4F7FA"/>
<path d="M24.3377 52.2569L53.2827 52.3266L59.6932 61.3525L59.6715 70.3628L17.862 70.2621L17.8837 61.2517L24.3377 52.2569Z" fill="#F4F7FA"/>
</svg>
