<svg width="78" height="82" viewBox="0 0 78 82" fill="none" xmlns="http://www.w3.org/2000/svg">
<path d="M28.5611 6.2197C29.3421 6.22158 30.0739 6.44274 30.7037 6.82758C31.3354 6.44578 32.0682 6.22815 32.8492 6.23004L44.6417 6.25846C45.4227 6.26034 46.1545 6.48149 46.7843 6.86634C47.4159 6.48453 48.1487 6.26691 48.9298 6.26879L59.6502 6.29463C62.0185 6.30033 63.9335 8.322 63.9275 10.8101L63.903 20.9468C63.8996 22.3648 63.2609 23.6986 62.1791 24.5468L55.5498 29.7446L57.3806 47.4648C57.8654 52.1562 59.9375 54.5408 62.9542 58.7882C63.509 59.5694 63.8077 60.5186 63.8053 61.4934L63.7836 70.5037C63.7776 72.9918 61.8529 75.0043 59.4846 74.9985L17.6751 74.8978C15.3068 74.8921 13.3918 72.8704 13.3978 70.3823L13.4196 61.3719C13.4219 60.3971 13.7251 59.4494 14.2837 58.6709C17.3208 54.438 19.4044 52.0635 19.9118 47.3745L21.8281 29.6633L15.2238 24.4336C14.1461 23.5802 13.5138 22.2434 13.5173 20.8254L13.5417 10.6887C13.5477 8.20057 15.4724 6.18816 17.8407 6.19387L28.5611 6.2197Z" fill="#F4F7FA"/>
<path d="M17.8298 10.699L28.5502 10.7249L28.5339 17.4826L32.8221 17.493L32.8384 10.7352L44.6308 10.7636L44.6145 17.5214L48.9026 17.5317L48.9189 10.774L59.6393 10.7998L59.6149 20.9364L51.0223 27.6735L53.1175 47.952L24.1725 47.8822L26.3654 27.6141L17.8054 20.8357L17.8298 10.699Z" fill="#34364C"/>
<path d="M24.1616 52.3874L53.1067 52.4572L59.5172 61.483L59.4954 70.4934L17.686 70.3926L17.7077 61.3823L24.1616 52.3874Z" fill="#34364C"/>
</svg>
